<svg viewBox="0 0 600 300" xmlns="http://www.w3.org/2000/svg">
  <defs>
    <linearGradient id="bg4" x1="0%" y1="0%" x2="100%" y2="100%">
      <stop offset="0%" style="stop-color:#0c2070"/>
      <stop offset="100%" style="stop-color:#1a5ed4"/>
    </linearGradient>
    <linearGradient id="glow4a" x1="0%" y1="100%" x2="100%" y2="0%">
      <stop offset="0%" style="stop-color:#3080ff;stop-opacity:0.3"/>
      <stop offset="100%" style="stop-color:#60c0ff;stop-opacity:0"/>
    </linearGradient>
    <filter id="blur4"><feGaussianBlur stdDeviation="20"/></filter>
  </defs>

  <rect width="600" height="300" fill="url(#bg4)"/>
  <rect width="600" height="300" fill="url(#glow4a)" filter="url(#blur4)" opacity="0.7"/>

  <!-- Connection network background -->
  <!-- Nodes -->
  <circle cx="300" cy="130" r="32" fill="rgba(26,108,255,0.3)" stroke="rgba(100,200,255,0.6)" stroke-width="2"/>
  <!-- Center icon: people -->
  <circle cx="300" cy="118" r="10" fill="rgba(255,255,255,0.7)"/>
  <path d="M280 145 Q280 132 300 132 Q320 132 320 145Z" fill="rgba(255,255,255,0.7)"/>

  <!-- Satellite nodes -->
  <circle cx="160" cy="90" r="22" fill="rgba(255,255,255,0.1)" stroke="rgba(255,255,255,0.3)" stroke-width="1.5"/>
  <circle cx="160" cy="83" r="7" fill="rgba(255,255,255,0.6)"/>
  <path d="M147 100 Q147 91 160 91 Q173 91 173 100Z" fill="rgba(255,255,255,0.6)"/>

  <circle cx="440" cy="90" r="22" fill="rgba(255,255,255,0.1)" stroke="rgba(255,255,255,0.3)" stroke-width="1.5"/>
  <circle cx="440" cy="83" r="7" fill="rgba(255,255,255,0.6)"/>
  <path d="M427 100 Q427 91 440 91 Q453 91 453 100Z" fill="rgba(255,255,255,0.6)"/>

  <circle cx="120" cy="200" r="22" fill="rgba(255,255,255,0.1)" stroke="rgba(255,255,255,0.3)" stroke-width="1.5"/>
  <circle cx="120" cy="193" r="7" fill="rgba(255,255,255,0.6)"/>
  <path d="M107 210 Q107 201 120 201 Q133 201 133 210Z" fill="rgba(255,255,255,0.6)"/>

  <circle cx="480" cy="200" r="22" fill="rgba(255,255,255,0.1)" stroke="rgba(255,255,255,0.3)" stroke-width="1.5"/>
  <circle cx="480" cy="193" r="7" fill="rgba(255,255,255,0.6)"/>
  <path d="M467 210 Q467 201 480 201 Q493 201 493 210Z" fill="rgba(255,255,255,0.6)"/>

  <circle cx="300" cy="230" r="22" fill="rgba(255,255,255,0.1)" stroke="rgba(255,255,255,0.3)" stroke-width="1.5"/>
  <circle cx="300" cy="223" r="7" fill="rgba(255,255,255,0.6)"/>
  <path d="M287 240 Q287 231 300 231 Q313 231 313 240Z" fill="rgba(255,255,255,0.6)"/>

  <!-- Connection lines -->
  <line x1="182" y1="97" x2="270" y2="120" stroke="rgba(100,200,255,0.3)" stroke-width="1.5" stroke-dasharray="4,3"/>
  <line x1="418" y1="97" x2="330" y2="120" stroke="rgba(100,200,255,0.3)" stroke-width="1.5" stroke-dasharray="4,3"/>
  <line x1="140" y1="193" x2="270" y2="142" stroke="rgba(100,200,255,0.25)" stroke-width="1.5" stroke-dasharray="4,3"/>
  <line x1="460" y1="193" x2="330" y2="142" stroke="rgba(100,200,255,0.25)" stroke-width="1.5" stroke-dasharray="4,3"/>
  <line x1="300" y1="208" x2="300" y2="162" stroke="rgba(100,200,255,0.3)" stroke-width="1.5" stroke-dasharray="4,3"/>
  <line x1="140" y1="207" x2="278" y2="235" stroke="rgba(100,200,255,0.2)" stroke-width="1" stroke-dasharray="3,4"/>
  <line x1="460" y1="207" x2="322" y2="235" stroke="rgba(100,200,255,0.2)" stroke-width="1" stroke-dasharray="3,4"/>

  <!-- Pulse rings on center -->
  <circle cx="300" cy="130" r="42" fill="none" stroke="rgba(100,200,255,0.15)" stroke-width="1"/>
  <circle cx="300" cy="130" r="55" fill="none" stroke="rgba(100,200,255,0.08)" stroke-width="1"/>

  <!-- Label -->
  <text x="30" y="268" font-family="'DM Sans', Arial, sans-serif" font-size="11" font-weight="600" fill="rgba(255,255,255,0.35)" letter-spacing="3">TUẦN 04</text>
  <text x="30" y="288" font-family="'DM Sans', Arial, sans-serif" font-size="14" font-weight="700" fill="rgba(255,255,255,0.9)" letter-spacing="1">Hoạt động nhóm &amp; Teamwork</text>
</svg>
